# xmcd
# 
# Track frame offsets:
#     182
#     16140
#     33177
#     48127
#     67705
#     84740
#     97885
#     111800
#     124950
#     140072
#     155345
#     173035
#     186032
#     200487
# 
# Disc length: 2839
# 
# Revision: 3
# Processed by: cddbd v1.5.2PL0 Copyright (c) Steve Scherf et al.
# Submitted via: fre:ac v1.0.31
# 
DISCID=ad0b150e
DTITLE=Truck Stop - No 1
DYEAR=1995
DGENRE=Deutsch Country
TTITLE0=Trucker lieben die Freiheit
TTITLE1=Ruf sie an
TTITLE2=Emmylou, Emmylou
TTITLE3=Wohin der Wind dich treibt
TTITLE4=Sonst glaub ich´s nicht
TTITLE5=Sally and Dan
TTITLE6=Komm her du bist mein Cowboy
TTITLE7=Sein Name ist
TTITLE8=Ich will nach Hause
TTITLE9=Mama steht auf Jesus
TTITLE10=Eddie´s Big Truck
TTITLE11=Kanten, Falten, Ecken
TTITLE12=Ich tanz nicht gern
TTITLE13=Wegseh´n und schweigen
EXTD=
EXTT0=
EXTT1=
EXTT2=
EXTT3=
EXTT4=
EXTT5=
EXTT6=
EXTT7=
EXTT8=
EXTT9=
EXTT10=
EXTT11=
EXTT12=
EXTT13=
PLAYORDER=
